<svg width="14" height="15" viewBox="0 0 14 15" fill="none" xmlns="http://www.w3.org/2000/svg">
<path d="M7 0.75C7.17188 0.75 7.33333 0.783854 7.48438 0.851562C7.63542 0.914062 7.76823 1.0026 7.88281 1.11719C7.9974 1.23177 8.08594 1.36458 8.14844 1.51562C8.21615 1.66667 8.25 1.82812 8.25 2C8.25 2.17188 8.21615 2.33333 8.14844 2.48438C8.08594 2.63542 7.9974 2.76823 7.88281 2.88281C7.76823 2.9974 7.63542 3.08854 7.48438 3.15625C7.33333 3.21875 7.17188 3.25 7 3.25C6.82812 3.25 6.66667 3.21875 6.51562 3.15625C6.36458 3.08854 6.23177 2.9974 6.11719 2.88281C6.0026 2.76823 5.91146 2.63542 5.84375 2.48438C5.78125 2.33333 5.75 2.17188 5.75 2C5.75 1.82812 5.78125 1.66667 5.84375 1.51562C5.91146 1.36458 6.0026 1.23177 6.11719 1.11719C6.23177 1.0026 6.36458 0.914062 6.51562 0.851562C6.66667 0.783854 6.82812 0.75 7 0.75ZM1.63281 3.75781C1.63281 3.60156 1.66146 3.45573 1.71875 3.32031C1.77604 3.1849 1.85417 3.06771 1.95312 2.96875C2.05729 2.86458 2.17708 2.78385 2.3125 2.72656C2.45312 2.66406 2.60156 2.63281 2.75781 2.63281C2.91406 2.63281 3.0599 2.66406 3.19531 2.72656C3.33073 2.78385 3.44792 2.86458 3.54688 2.96875C3.65104 3.06771 3.73177 3.1849 3.78906 3.32031C3.85156 3.45573 3.88281 3.60156 3.88281 3.75781C3.88281 3.91406 3.85156 4.0625 3.78906 4.20312C3.73177 4.33854 3.65104 4.45833 3.54688 4.5625C3.44792 4.66146 3.33073 4.73958 3.19531 4.79688C3.0599 4.85417 2.91406 4.88281 2.75781 4.88281C2.60156 4.88281 2.45312 4.85417 2.3125 4.79688C2.17708 4.73958 2.05729 4.66146 1.95312 4.5625C1.85417 4.45833 1.77604 4.33854 1.71875 4.20312C1.66146 4.0625 1.63281 3.91406 1.63281 3.75781ZM1 7C1.14062 7 1.27083 7.02604 1.39062 7.07812C1.51042 7.13021 1.61458 7.20312 1.70312 7.29688C1.79688 7.38542 1.86979 7.48958 1.92188 7.60938C1.97396 7.72917 2 7.85938 2 8C2 8.14062 1.97396 8.27083 1.92188 8.39062C1.86979 8.51042 1.79688 8.61719 1.70312 8.71094C1.61458 8.79948 1.51042 8.86979 1.39062 8.92188C1.27083 8.97396 1.14062 9 1 9C0.859375 9 0.729167 8.97396 0.609375 8.92188C0.489583 8.86979 0.382812 8.79948 0.289062 8.71094C0.200521 8.61719 0.130208 8.51042 0.078125 8.39062C0.0260417 8.27083 0 8.14062 0 8C0 7.85938 0.0260417 7.72917 0.078125 7.60938C0.130208 7.48958 0.200521 7.38542 0.289062 7.29688C0.382812 7.20312 0.489583 7.13021 0.609375 7.07812C0.729167 7.02604 0.859375 7 1 7ZM1.88281 12.2422C1.88281 12.1224 1.90625 12.0104 1.95312 11.9062C2 11.7969 2.0625 11.7031 2.14062 11.625C2.21875 11.5469 2.3099 11.4844 2.41406 11.4375C2.52344 11.3906 2.63802 11.3672 2.75781 11.3672C2.8776 11.3672 2.98958 11.3906 3.09375 11.4375C3.20312 11.4844 3.29688 11.5469 3.375 11.625C3.45312 11.7031 3.51562 11.7969 3.5625 11.9062C3.60938 12.0104 3.63281 12.1224 3.63281 12.2422C3.63281 12.362 3.60938 12.4766 3.5625 12.5859C3.51562 12.6901 3.45312 12.7812 3.375 12.8594C3.29688 12.9375 3.20312 13 3.09375 13.0469C2.98958 13.0938 2.8776 13.1172 2.75781 13.1172C2.63802 13.1172 2.52344 13.0938 2.41406 13.0469C2.3099 13 2.21875 12.9375 2.14062 12.8594C2.0625 12.7812 2 12.6901 1.95312 12.5859C1.90625 12.4766 1.88281 12.362 1.88281 12.2422ZM7 13.25C7.20833 13.25 7.38542 13.3229 7.53125 13.4688C7.67708 13.6146 7.75 13.7917 7.75 14C7.75 14.2083 7.67708 14.3854 7.53125 14.5312C7.38542 14.6771 7.20833 14.75 7 14.75C6.79167 14.75 6.61458 14.6771 6.46875 14.5312C6.32292 14.3854 6.25 14.2083 6.25 14C6.25 13.7917 6.32292 13.6146 6.46875 13.4688C6.61458 13.3229 6.79167 13.25 7 13.25ZM10.6172 12.2422C10.6172 12.0651 10.6771 11.9167 10.7969 11.7969C10.9167 11.6771 11.0651 11.6172 11.2422 11.6172C11.4193 11.6172 11.5677 11.6771 11.6875 11.7969C11.8073 11.9167 11.8672 12.0651 11.8672 12.2422C11.8672 12.4193 11.8073 12.5677 11.6875 12.6875C11.5677 12.8073 11.4193 12.8672 11.2422 12.8672C11.0651 12.8672 10.9167 12.8073 10.7969 12.6875C10.6771 12.5677 10.6172 12.4193 10.6172 12.2422ZM13 7.5C13.1354 7.5 13.2526 7.54948 13.3516 7.64844C13.4505 7.7474 13.5 7.86458 13.5 8C13.5 8.13542 13.4505 8.2526 13.3516 8.35156C13.2526 8.45052 13.1354 8.5 13 8.5C12.8646 8.5 12.7474 8.45052 12.6484 8.35156C12.5495 8.2526 12.5 8.13542 12.5 8C12.5 7.86458 12.5495 7.7474 12.6484 7.64844C12.7474 7.54948 12.8646 7.5 13 7.5ZM11.2422 2.38281C11.4297 2.38281 11.6068 2.41927 11.7734 2.49219C11.9401 2.5651 12.0859 2.66406 12.2109 2.78906C12.3359 2.91406 12.4349 3.0599 12.5078 3.22656C12.5807 3.39323 12.6172 3.57031 12.6172 3.75781C12.6172 3.94531 12.5807 4.1224 12.5078 4.28906C12.4349 4.45573 12.3359 4.60156 12.2109 4.72656C12.0859 4.85156 11.9401 4.95052 11.7734 5.02344C11.6068 5.09635 11.4297 5.13281 11.2422 5.13281C11.0547 5.13281 10.8776 5.09635 10.7109 5.02344C10.5443 4.95052 10.3984 4.85156 10.2734 4.72656C10.1484 4.60156 10.0495 4.45573 9.97656 4.28906C9.90365 4.1224 9.86719 3.94531 9.86719 3.75781C9.86719 3.57031 9.90365 3.39323 9.97656 3.22656C10.0495 3.0599 10.1484 2.91406 10.2734 2.78906C10.3984 2.66406 10.5443 2.5651 10.7109 2.49219C10.8776 2.41927 11.0547 2.38281 11.2422 2.38281Z" fill="#C5C5C5"/>
</svg>
